<svg viewBox="0 0 24 24" fill="none" xmlns="http://www.w3.org/2000/svg">
  <path d="M12 2C6.48 2 2 6.48 2 12C2 17.52 6.48 22 12 22C13.1 22 14 21.1 14 20C14 19.5 13.8 19.05 13.48 18.72C13.17 18.4 12.97 17.97 12.97 17.5C12.97 16.4 13.87 15.5 14.97 15.5H17C19.76 15.5 22 13.26 22 10.5C22 5.81 17.52 2 12 2Z" stroke="#FBBF24" stroke-width="1.5"/>
  <circle cx="8" cy="10" r="1.5" fill="#FBBF24"/>
  <circle cx="12" cy="7" r="1.5" fill="#FBBF24"/>
  <circle cx="16" cy="10" r="1.5" fill="#FBBF24"/>
</svg>

